**ABCDEFGHIJKLMNOPQRSTUVWXYZabcdefghijklmnopqrstuvwxyz**************************
**PARASOLID !"#$%&'()*+,-./:;<=>?@[\]^_`{|}~0123456789**************************
**PART1;
MC=AMD64;
MC_MODEL=Intel64 Family 6 Model 183 Stepping 1, GenuineIntel;
MC_ID=unknown;
OS=Windows_NT;
OS_RELEASE=unknown;
FRU=Parasolid Version 34.1, build 254,  2-10-2023;
APPL=SOLIDWORKS 2023-2023281;
SITE=;
USER=unknown;
FORMAT=text;
GUISE=transmit;
KEY=Assem2;
FILE=Assem2.x_t;
DATE=Thu Oct 30 14:09:42 2025;
**PART2;
SCH=SCH_3401254_34101;
USFLD_SIZE=0;
**PART3;
**END_OF_HEADER*****************************************************************
T51 : TRANSMIT FILE created by modeller version 340125423 SCH_3401254_34101_1300
6231 0 10 21 CCCCI7 lattice222 0 CCCI4 mesh1006 0 I8 polyline1008 0 CCCCCCCCCCA1
6 mesh_offset_data206 0 Z1 7 2 3 0 0 0 0 0 0 0 0 1e3 1e-8 0 0 4 1 0 1 5 0 81 255
 1 2 7 6 1 0 0 0 0 0 70 11 CI9 list_type0 0 1 uI10 notransmit0 0 1 lCCCDCCDI12 f
inger_index0 0 1 dI12 finger_block1012 0 CZ3 0 4 T1 0 0 1 20 1 7 7 11 255 5 5 0
 1 8 9 1 10 0 0 0 10 8 5 11 12 0 0 0 0 0 0 0 0 1e3 1e-8 5 13 0 1 0 1 14 0 100 10
 CCCCCCCCCA9 precision229 0 Z9 6 5 0 0 1 0 0 0 1 0 0 0 1 -.003391938157787935 -.
00843037221036153 -634735319859914e-29 1 1 ?0 11 10 3 0 1 13 15 1 16 5 0 0 10 13
 5 17 18 0 0 0 0 0 0 0 0 1e3 1e-8 10 4 8 1 0 1 19 0 100 15 4 10 0 0 1 0 0 0 1 0
 0 0 1 .0173188209255976 .00256962778963847 -634214902817121e-29 1 1 ?0 11 16 1
 0 1 4 20 1 0 10 0 0 10 4 5 21 22 0 0 0 0 0 0 0 0 1e3 1e-8 16 1 13 1 0 1 23 0 10
0 20 2 16 0 0 1 0 0 0 1 0 0 0 1 -.003391938157787935 .00256962778963847 -6347353
19859914e-29 1 1 ?0 81 1 21 5 6 4 0 0 0 0 24 70 22 0 4 T4 0 0 1 20 1 25 25 11 23
 3 0 1 26 27 4 28 0 0 19 12 36 CCCI7 lattice222 0 CCCI4 mesh1006 0 I8 polyline10
08 0 CCCCCCCDI5 owner1040 0 CCCI16 boundary_lattice222 0 CCCI13 boundary_mesh100
6 0 I17 boundary_polyline1008 0 CCCA16 index_map_offset0 0 1 dA9 index_map82 0 A
17 node_id_index_map82 0 A20 schema_embedding_map82 0 A5 child12 0 A14 lowest_no
de_id0 0 1 dA16 mesh_offset_data206 0 Z26 71 29 30 0 0 0 0 0 0 0 1e3 1e-8 14 31
 0 1 0 1 1 32 0 33 34 0 0 0 35 36 0 0 0 0 0 0 0 0 100 27 4 23 0 0 1 0 0 0 1 0 0
 0 1 .0030631706276192 -.00217041007443358 -.0056986638837184 1 1 ?0 11 28 1 0 1
 31 37 4 0 23 0 38 12 31 215 39 40 0 0 0 0 0 0 0 1e3 1e-8 41 0 26 1 0 1 1 42 0 4
3 44 45 0 0 46 47 48 0 0 0 0 0 0 0 100 37 2 28 0 0 1 0 0 0 1 0 0 0 1 .0030631706
276192 -.00217041007443358 -1182344153138892e-29 1 1 ?0 81 1 39 215 6 31 49 0 0
 0 50 70 40 0 4 T31 0 0 4 20 1 51 51 13 255 42 99 0 31 0 52 0 0 53 0 50 255 43 9
4 0 54 55 0 0 +-.005 -.005 .002 1 0 0 0 0 -1 30 255 44 98 0 47 56 0 0 +-.005 -.0
05 .002 0 0 -1 29 255 45 75 0 57 58 0 -.005 .005 0 19 9 CCCCCCI5 frame230 0 CA5
 owner12 0 Z46 33 0 31 53 0 59 0 V0 16 255 47 82 0 ?60 0 61 44 0 0 31 18 255 48
 30 0 62 0 63 64 ?31 17 255 62 0 65 66 67 48 68 69 0 70 +18 63 27 0 67 48 71 72
 ?31 29 64 32 0 48 72 73 -.005 .005 .002 29 72 29 0 63 74 64 .005 .005 .002 29 7
3 78 0 75 64 76 -.005 -.005 0 18 75 69 0 77 78 0 73 ?31 29 76 77 0 78 73 58 .005
 -.005 0 18 78 68 0 79 80 75 76 ?31 29 58 76 0 80 76 45 .005 .005 0 18 80 67 0 8
1 57 78 58 ?31 17 81 0 82 83 84 80 85 86 0 87 +18 57 66 0 88 89 80 45 ?31 17 88
 0 90 70 87 57 91 92 0 93 +18 89 21 0 94 71 57 95 ?31 17 94 0 96 60 97 89 98 99
 0 66 -18 71 24 0 98 63 89 74 ?31 29 95 23 0 89 0 74 -.005 -.005 .002 29 74 26 0
 71 95 72 .005 -.005 .002 17 98 0 65 67 66 71 94 99 0 97 +15 255 65 4 0 66 52 10
0 17 67 0 65 62 98 63 101 102 0 83 +17 66 0 65 98 62 89 103 104 0 105 +16 99 9 0
 ?98 102 104 106 0 0 31 17 97 0 96 94 79 71 84 61 0 101 -15 96 87 0 79 107 0 17
 79 0 96 97 60 78 77 108 0 84 +17 84 0 82 81 101 78 97 61 0 85 +16 61 81 0 ?84 4
7 109 56 0 0 31 17 101 0 82 84 83 71 67 102 0 0 -15 82 85 0 81 110 0 17 83 0 82
 101 81 63 87 109 0 68 -16 102 13 0 ?67 69 99 111 0 0 31 16 69 17 0 ?62 112 102
 113 0 0 31 30 111 15 0 102 106 113 0 +.005 -.005 .002 0 1 0 30 106 11 0 99 114
 111 0 +-.005 -.005 .002 1 -867361737988404e-31 0 30 113 19 0 69 111 115 0 +-.00
5 .005 .002 -1 0 0 30 115 74 0 116 113 117 0 +-.005 -.005 0 0 -1 0 16 116 62 0 ?
118 108 119 115 0 0 31 30 117 73 0 108 115 120 0 +-.005 -.005 0 1 -8673617379884
04e-31 0 16 108 58 0 ?79 86 116 117 0 0 31 30 120 72 0 86 117 121 0 +.005 -.005
 0 0 1 0 16 86 54 0 ?81 92 108 120 0 0 31 30 121 71 0 92 120 122 0 +-.005 .005 0
 -1 0 0 16 92 50 0 ?88 104 86 121 0 0 31 30 122 95 0 112 121 123 0 +-.005 .005 .
002 0 0 -1 16 112 79 0 ?93 109 69 122 0 0 31 30 123 96 0 109 122 56 0 +.005 .005
 .002 0 0 -1 16 109 80 0 ?87 61 112 123 0 0 31 30 56 97 0 61 123 44 0 +.005 -.00
5 .002 0 0 -1 17 87 0 90 88 68 80 83 109 0 91 +15 90 83 0 88 124 0 17 68 0 90 87
 70 63 62 69 0 0 -17 91 0 125 85 126 80 88 92 0 0 -15 125 49 0 126 127 128 17 85
 0 125 77 91 78 81 86 0 0 -17 126 0 125 91 77 57 118 116 0 0 -17 77 0 125 126 85
 75 79 108 0 60 -17 118 0 129 105 93 75 126 116 0 0 +15 129 89 0 118 54 0 17 105
 0 129 103 118 89 60 47 0 0 -17 93 0 129 118 103 57 70 112 0 126 +17 103 0 129 9
3 105 48 66 104 0 0 -17 70 0 90 68 88 48 93 112 0 103 -16 104 5 0 ?66 99 92 114
 0 0 31 30 114 7 0 104 130 106 0 +-.005 -.005 .002 0 -1 0 31 255 130 147 0 131 1
32 114 0 +0 0 0 0 0 1 1 0 0 5e-4 16 131 125 0 ?133 119 0 130 0 0 31 31 132 148 0
 119 0 130 0 +0 0 .002 0 0 1 1 0 0 5e-4 16 119 128 0 ?134 116 131 132 0 0 31 17
 134 0 135 134 134 0 136 119 0 0 +15 135 134 0 134 137 138 17 136 0 100 136 136
 0 134 119 0 0 -15 100 120 0 136 52 0 14 255 52 122 139 ?127 0 65 42 140 -0 0 12
7 0 59 81 1 139 208 141 52 142 0 0 143 144 14 127 116 143 ?54 52 125 42 145 +0 0
 54 52 59 50 140 3 0 52 146 145 0 +0 0 .002 0 0 -1 -1 0 0 13 59 34 0 0 0 0 0 0 4
6 52 51 255 146 144 0 137 0 140 0 -0 0 .002 0 0 -1 5e-4 -1 0 0 50 145 70 0 127 1
40 147 0 +0 0 0 0 0 -1 -1 0 0 50 147 91 0 124 145 148 0 +-.005 .005 .002 0 -1 0
 0 0 -1 14 124 84 149 ?137 110 90 42 147 -0 0 137 110 59 50 148 92 0 110 147 55
 0 +.005 -.005 .002 -1 0 0 0 0 1 14 110 86 150 ?124 107 82 42 148 -0 0 124 107 5
9 50 55 93 0 107 148 43 0 +-.005 -.005 .002 867361737988404e-31 1 0 -1 867361737
988404e-31 0 14 107 88 151 ?110 54 96 42 55 -0 0 110 54 59 81 1 151 211 141 107
 152 0 153 150 154 14 54 90 153 ?107 127 129 42 43 -0 0 107 127 59 81 1 153 210
 141 54 155 0 143 151 156 80 7 CCCCCDI12 legal_owners0 16 1 lCZ1 141 0 157 8001
 0 0 0 0 3 5 0 0 0 FFFFTFTFFFFFFFFF2 81 1 155 202 158 54 0 153 152 159 160 81 1
 143 209 141 127 161 0 139 153 162 83 255 3 156 .792156862745098 .81960784313725
5 .933333333333333 81 1 161 190 158 127 0 143 142 163 164 83 3 162 .792156862745
098 .819607843137255 .933333333333333 80 1 158 165 166 9000 1 1 1 1 1 1 1 1 0 FF
FFTFTFFFFFFFFF1 81 1 142 187 158 52 0 139 0 161 167 81 1 163 193 158 124 0 149 1
61 168 169 82 255 1 164 469369258 81 1 149 213 141 124 163 0 150 170 171 81 1 16
8 196 158 110 0 150 163 152 172 82 1 169 462029226 81 1 150 212 141 110 168 0 15
1 149 173 81 1 152 199 158 107 0 151 168 155 174 82 1 172 462291370 82 1 174 462
553514 83 3 173 .792156862745098 .819607843137255 .933333333333333 81 1 170 214
 141 137 159 0 149 0 175 83 3 171 .792156862745098 .819607843137255 .93333333333
3333 14 137 131 170 ?0 124 135 42 146 +0 0 0 124 59 81 1 159 205 158 137 0 170 1
55 0 176 83 3 175 .792156862745098 .819607843137255 .933333333333333 82 1 176 46
7665322 82 1 167 469893546 79 255 14 166 SWEntUnchanged82 1 160 462815658 79 15
 157 SDL/TYSA_COLOUR83 3 154 .792156862745098 .819607843137255 .933333333333333
 83 3 144 .792156862745098 .819607843137255 .933333333333333 15 138 135 0 177 13
7 0 17 177 0 138 177 177 0 133 131 0 0 -17 133 0 128 133 133 0 177 131 0 0 +15 1
28 113 0 133 127 0 17 60 0 96 79 94 75 105 47 0 118 +19 53 100 0 31 0 46 42 0 S0
 74 4 CI16 index_map_offset0 0 1 dCCZ20 51 4 0 0 49 159 170 39 0 0 0 0 0 0 0 0 0
 0 0 0 0 0 0 0 81 2 49 176 178 31 0 39 0 0 179 0 80 2 178 180 181 9000 0 0 0 0 3
 5 0 0 0 FFTFTTTFFTFFFFFF10 10 98 255 11 179 -114 -98 -131 32 45 32 25276 12375
 20986 12375 49 79 23 181 SWIMPLICITBODYNAME_ID_U80 1 6 182 183 8017 0 0 0 0 0 0
 0 0 0 TTTTTTTTTTTTTFTF3 84 255 4 50 base79 13 183 SDL/TYSA_NAME81 1 29 71 6 26
 184 0 0 0 185 70 30 0 4 T26 0 0 4 20 1 186 186 13 32 31 0 26 0 187 0 0 188 0 51
 33 30 0 187 189 0 0 -0 0 .01 0 0 -1 25e-5 -1 0 0 31 34 25 0 190 191 0 0 +0 0 0
 0 0 1 1 0 0 25e-5 19 35 9 0 26 188 0 192 0 V0 16 36 5 0 ?193 0 190 191 0 0 26 1
7 193 0 194 193 193 0 195 36 0 0 +16 190 20 0 ?196 36 0 34 0 0 26 31 191 7 0 36
 0 34 0 +0 0 .01 0 0 1 1 0 0 25e-5 17 196 0 197 196 196 0 198 190 0 0 +15 197 28
 0 196 187 0 17 198 0 199 198 198 0 196 190 0 0 -15 199 19 0 198 200 0 14 200 18
 201 ?0 202 199 32 189 -0 0 0 202 192 81 1 201 70 141 200 203 0 204 0 205 14 202
 1 204 ?200 187 194 32 206 +0 0 200 187 192 50 189 24 0 200 206 33 0 +0 0 0 0 0
 1 1 0 0 13 192 10 0 0 0 0 0 0 35 187 14 187 27 207 ?202 0 208 32 33 -0 0 202 0
 192 81 1 207 68 141 187 209 0 0 204 210 15 208 26 0 195 187 197 17 195 0 208 19
5 195 0 193 36 0 0 -81 1 209 65 158 187 0 207 211 0 212 81 1 204 69 141 202 211
 0 207 201 213 83 3 210 .792156862745098 .819607843137255 .933333333333333 81 1
 211 62 158 202 0 204 203 209 214 83 3 213 .792156862745098 .819607843137255 .93
3333333333333 81 1 203 59 158 200 0 201 0 211 215 82 1 214 485884285 82 1 215 48
7588221 82 1 212 487850365 50 206 3 0 202 0 189 0 +0 0 .01 0 0 1 1 0 0 15 194 4
 0 193 202 0 83 3 205 .792156862745098 .819607843137255 .933333333333333 19 188
 32 0 26 0 35 32 0 S0 74 20 186 4 0 0 184 209 201 29 0 0 0 0 0 0 0 0 0 0 0 0 0 0
 0 0 81 2 184 52 178 26 0 29 0 0 216 0 98 11 216 -114 -98 -131 32 45 32 25276 12
375 20986 12375 49 84 8 185 cylinder74 20 25 1 0 0 21 0 0 0 0 0 0 0 0 0 0 0 0 0
 0 0 0 0 0 0 84 6 24 Assem181 1 17 5 6 13 0 0 0 0 217 70 18 0 4 T13 0 0 1 20 1 2
18 218 11 19 3 0 1 26 219 13 38 0 23 14 100 219 4 19 0 0 1 0 0 0 1 0 0 0 1 .0030
631706276192 -.00217041007443358 -.0056986638837184 1 1 ?0 11 38 1 0 1 31 220 13
 0 19 28 41 100 220 2 38 0 0 1 0 0 0 1 0 0 0 1 .0030631706276192 -.0021704100744
3358 -1182344153138892e-29 1 1 ?0 74 20 218 1 0 0 17 0 0 0 0 0 0 0 0 0 0 0 0 0 0
 0 0 0 0 0 84 6 217 Assem181 1 11 5 6 8 0 0 0 0 221 70 12 0 4 T8 0 0 1 20 1 222
 222 11 14 3 0 1 26 223 8 41 0 19 0 100 223 4 14 0 0 1 0 0 0 1 0 0 0 1 .00306317
06276192 -.00217041007443358 -.0056986638837184 1 1 ?0 11 41 1 0 1 31 224 8 0 14
 38 0 100 224 2 41 0 0 1 0 0 0 1 0 0 0 1 .0030631706276192 -.00217041007443358 -
1182344153138892e-29 1 1 ?0 74 20 222 1 0 0 11 0 0 0 0 0 0 0 0 0 0 0 0 0 0 0 0 0
 0 0 84 6 221 Assem174 20 7 1 0 0 2 0 0 0 0 0 0 0 0 0 0 0 0 0 0 0 0 0 0 0 1 0 
