**ABCDEFGHIJKLMNOPQRSTUVWXYZabcdefghijklmnopqrstuvwxyz**************************
**PARASOLID !"#$%&'()*+,-./:;<=>?@[\]^_`{|}~0123456789**************************
**PART1;
MC=AMD64;
MC_MODEL=Intel64 Family 6 Model 183 Stepping 1, GenuineIntel;
MC_ID=unknown;
OS=Windows_NT;
OS_RELEASE=unknown;
FRU=Parasolid Version 34.1, build 254,  2-10-2023;
APPL=SOLIDWORKS 2023-2023281;
SITE=;
USER=unknown;
FORMAT=text;
GUISE=transmit;
KEY=Assem1;
FILE=Assem1.x_t;
DATE=Thu Oct 30 13:31:04 2025;
**PART2;
SCH=SCH_3401254_34101;
USFLD_SIZE=0;
**PART3;
**END_OF_HEADER*****************************************************************
T51 : TRANSMIT FILE created by modeller version 340125423 SCH_3401254_34101_1300
6231 0 10 21 CCCCI7 lattice222 0 CCCI4 mesh1006 0 I8 polyline1008 0 CCCCCCCCCCA1
6 mesh_offset_data206 0 Z1 5 2 3 0 0 0 0 0 0 0 0 1e3 1e-8 0 0 0 1 0 1 4 0 81 255
 1 2 5 5 1 0 0 0 0 0 70 11 CI9 list_type0 0 1 uI10 notransmit0 0 1 lCCCDCCDI12 f
inger_index0 0 1 dI12 finger_block1012 0 CZ3 0 4 T1 0 0 1 20 1 6 6 11 255 4 3 0
 1 7 8 1 9 0 0 0 12 36 CCCI7 lattice222 0 CCCI4 mesh1006 0 I8 polyline1008 0 CCC
CCCCDI5 owner1040 0 CCCI16 boundary_lattice222 0 CCCI13 boundary_mesh1006 0 I17
 boundary_polyline1008 0 CCCA16 index_map_offset0 0 1 dA9 index_map82 0 A17 node
_id_index_map82 0 A20 schema_embedding_map82 0 A5 child12 0 A14 lowest_node_id0
 0 1 dA16 mesh_offset_data206 0 Z7 78 10 11 0 0 0 0 0 0 0 1e3 1e-8 4 12 0 1 0 1
 1 13 0 14 15 0 0 0 16 17 0 0 0 0 0 0 0 0 100 10 CCCCCCCCCA9 precision229 0 Z8 4
 4 0 0 1 0 0 0 1 0 0 0 1 .0030631706276192 -.00217041007443358 -.005698663883718
4 1 1 ?0 11 9 1 0 1 12 18 1 0 4 0 0 12 12 226 19 20 0 0 0 0 0 0 0 1e3 1e-8 9 0 7
 1 0 1 1 21 0 22 23 24 0 0 25 26 27 0 0 0 0 0 0 0 100 18 2 9 0 0 1 0 0 0 1 0 0 0
 1 .0030631706276192 -.00217041007443358 -1182344153138892e-29 1 1 ?0 81 1 19 22
6 5 12 28 0 0 0 29 70 20 0 4 T12 0 0 4 20 1 30 30 13 255 21 99 0 12 0 31 0 0 32
 0 50 255 22 94 0 33 34 0 0 +-.005 -.005 .002 1 0 0 0 0 -1 30 255 23 98 0 26 35
 0 0 +-.005 -.005 .002 0 0 -1 29 255 24 75 0 36 37 0 -.005 .005 0 19 9 CCCCCCI5
 frame230 0 CA5 owner12 0 Z25 33 0 12 32 0 38 0 V0 16 255 26 82 0 ?39 0 40 23 0
 0 12 18 255 27 30 0 41 0 42 43 ?12 17 255 41 0 44 45 46 27 47 48 0 49 +18 42 27
 0 46 27 50 51 ?12 29 43 32 0 27 51 52 -.005 .005 .002 29 51 29 0 42 53 43 .005
 .005 .002 29 52 78 0 54 43 55 -.005 -.005 0 18 54 69 0 56 57 0 52 ?12 29 55 77
 0 57 52 37 .005 -.005 0 18 57 68 0 58 59 54 55 ?12 29 37 76 0 59 55 24 .005 .00
5 0 18 59 67 0 60 36 57 37 ?12 17 60 0 61 62 63 59 64 65 0 66 +18 36 66 0 67 68
 59 24 ?12 17 67 0 69 49 66 36 70 71 0 72 +18 68 21 0 73 50 36 74 ?12 17 73 0 75
 39 76 68 77 78 0 45 -18 50 24 0 77 42 68 53 ?12 29 74 23 0 68 0 53 -.005 -.005
 .002 29 53 26 0 50 74 51 .005 -.005 .002 17 77 0 44 46 45 50 73 78 0 76 +15 255
 44 4 0 45 31 79 17 46 0 44 41 77 42 80 81 0 62 +17 45 0 44 77 41 68 82 83 0 84
 +16 78 9 0 ?77 81 83 85 0 0 12 17 76 0 75 73 58 50 63 40 0 80 -15 75 87 0 58 86
 0 17 58 0 75 76 39 57 56 87 0 63 +17 63 0 61 60 80 57 76 40 0 64 +16 40 81 0 ?6
3 26 88 35 0 0 12 17 80 0 61 63 62 50 46 81 0 0 -15 61 85 0 60 89 0 17 62 0 61 8
0 60 42 66 88 0 47 -16 81 13 0 ?46 48 78 90 0 0 12 16 48 17 0 ?41 91 81 92 0 0 1
2 30 90 15 0 81 85 92 0 +.005 -.005 .002 0 1 0 30 85 11 0 78 93 90 0 +-.005 -.00
5 .002 1 -867361737988404e-31 0 30 92 19 0 48 90 94 0 +-.005 .005 .002 -1 0 0 30
 94 74 0 95 92 96 0 +-.005 -.005 0 0 -1 0 16 95 62 0 ?97 87 98 94 0 0 12 30 96 7
3 0 87 94 99 0 +-.005 -.005 0 1 -867361737988404e-31 0 16 87 58 0 ?58 65 95 96 0
 0 12 30 99 72 0 65 96 100 0 +.005 -.005 0 0 1 0 16 65 54 0 ?60 71 87 99 0 0 12
 30 100 71 0 71 99 101 0 +-.005 .005 0 -1 0 0 16 71 50 0 ?67 83 65 100 0 0 12 30
 101 95 0 91 100 102 0 +-.005 .005 .002 0 0 -1 16 91 79 0 ?72 88 48 101 0 0 12 3
0 102 96 0 88 101 35 0 +.005 .005 .002 0 0 -1 16 88 80 0 ?66 40 91 102 0 0 12 30
 35 97 0 40 102 23 0 +.005 -.005 .002 0 0 -1 17 66 0 69 67 47 59 62 88 0 70 +15
 69 83 0 67 103 0 17 47 0 69 66 49 42 41 48 0 0 -17 70 0 104 64 105 59 67 71 0 0
 -15 104 49 0 105 106 107 17 64 0 104 56 70 57 60 65 0 0 -17 105 0 104 70 56 36
 97 95 0 0 -17 56 0 104 105 64 54 58 87 0 39 -17 97 0 108 84 72 54 105 95 0 0 +1
5 108 89 0 97 33 0 17 84 0 108 82 97 68 39 26 0 0 -17 72 0 108 97 82 36 49 91 0
 105 +17 82 0 108 72 84 27 45 83 0 0 -17 49 0 69 47 67 27 72 91 0 82 -16 83 5 0
 ?45 78 71 93 0 0 12 30 93 7 0 83 109 85 0 +-.005 -.005 .002 0 -1 0 31 255 109 1
47 0 110 111 93 0 +0 0 0 0 0 1 1 0 0 5e-4 16 110 125 0 ?112 98 0 109 0 0 12 31 1
11 148 0 98 0 109 0 +0 0 .002 0 0 1 1 0 0 5e-4 16 98 128 0 ?113 95 110 111 0 0 1
2 17 113 0 114 113 113 0 115 98 0 0 +15 114 134 0 113 116 117 17 115 0 79 115 11
5 0 113 98 0 0 -15 79 120 0 115 31 0 14 255 31 122 118 ?106 0 44 21 119 -0 0 106
 0 38 81 1 118 219 120 31 121 0 0 122 123 14 106 116 122 ?33 31 104 21 124 +0 0
 33 31 38 50 119 3 0 31 125 124 0 +0 0 .002 0 0 -1 -1 0 0 13 38 34 0 0 0 0 0 0 2
5 31 51 255 125 144 0 116 0 119 0 -0 0 .002 0 0 -1 5e-4 -1 0 0 50 124 70 0 106 1
19 126 0 +0 0 0 0 0 -1 -1 0 0 50 126 91 0 103 124 127 0 +-.005 .005 .002 0 -1 0
 0 0 -1 14 103 84 128 ?116 89 69 21 126 -0 0 116 89 38 50 127 92 0 89 126 34 0 +
.005 -.005 .002 -1 0 0 0 0 1 14 89 86 129 ?103 86 61 21 127 -0 0 103 86 38 50 34
 93 0 86 127 22 0 +-.005 -.005 .002 867361737988404e-31 1 0 -1 867361737988404e-
31 0 14 86 88 130 ?89 33 75 21 34 -0 0 89 33 38 81 1 130 222 120 86 131 0 132 12
9 133 14 33 90 132 ?86 106 108 21 22 -0 0 86 106 38 81 1 132 221 120 33 134 0 12
2 130 135 80 7 CCCCCDI12 legal_owners0 16 1 lCZ1 120 0 136 8001 0 0 0 0 3 5 0 0
 0 FFFFTFTFFFFFFFFF2 81 1 134 213 137 33 0 132 131 138 139 81 1 122 220 120 106
 140 0 118 132 141 83 255 3 135 .792156862745098 .819607843137255 .9333333333333
33 81 1 140 201 137 106 0 122 121 142 143 83 3 141 .792156862745098 .81960784313
7255 .933333333333333 80 1 137 144 145 9000 1 1 1 1 1 1 1 1 0 FFFFTFTFFFFFFFFF1
 81 1 121 198 137 31 0 118 0 140 146 81 1 142 204 137 103 0 128 140 147 148 82 2
55 1 143 244515172 81 1 128 224 120 103 142 0 129 149 150 81 1 147 207 137 89 0
 129 142 131 151 82 1 148 237175140 81 1 129 223 120 89 147 0 130 128 152 81 1 1
31 210 137 86 0 130 147 134 153 82 1 151 237437284 82 1 153 237699428 83 3 152 .
792156862745098 .819607843137255 .933333333333333 81 1 149 225 120 116 138 0 128
 0 154 83 3 150 .792156862745098 .819607843137255 .933333333333333 14 116 131 14
9 ?0 103 114 21 125 +0 0 0 103 38 81 1 138 216 137 116 0 149 134 0 155 83 3 154
 .792156862745098 .819607843137255 .933333333333333 82 1 155 242811236 82 1 146
 245039460 79 255 14 145 SWEntUnchanged82 1 139 237961572 79 15 136 SDL/TYSA_COL
OUR83 3 133 .792156862745098 .819607843137255 .933333333333333 83 3 123 .7921568
62745098 .819607843137255 .933333333333333 15 117 135 0 156 116 0 17 156 0 117 1
56 156 0 112 110 0 0 -17 112 0 107 112 112 0 156 110 0 0 +15 107 113 0 112 106 0
 17 39 0 75 58 73 54 84 26 0 97 +19 32 100 0 12 0 25 21 0 S0 74 4 CI16 index_map
_offset0 0 1 dCCZ20 30 4 0 0 28 138 149 19 0 0 0 0 0 0 0 0 0 0 0 0 0 0 0 0 81 2
 28 176 157 12 0 19 0 0 158 0 80 2 157 159 160 9000 0 0 0 0 3 5 0 0 0 FFTFTTTFFT
FFFFFF10 10 98 255 11 158 -114 -98 -131 32 45 32 25276 12375 20986 12375 49 79 2
3 160 SWIMPLICITBODYNAME_ID_U80 1 5 161 162 8017 0 0 0 0 0 0 0 0 0 TTTTTTTTTTTTT
FTF3 84 255 4 29 base79 13 162 SDL/TYSA_NAME81 1 10 78 5 7 163 0 0 0 164 70 11 0
 4 T7 0 0 4 20 1 165 165 13 13 31 0 7 0 166 0 0 167 0 51 14 30 0 166 168 0 0 -0
 0 .01 0 0 -1 25e-5 -1 0 0 31 15 25 0 169 170 0 0 +0 0 0 0 0 1 1 0 0 25e-5 19 16
 9 0 7 167 0 171 0 V0 16 17 5 0 ?172 0 169 170 0 0 7 17 172 0 173 172 172 0 174
 17 0 0 +16 169 20 0 ?175 17 0 15 0 0 7 31 170 7 0 17 0 15 0 +0 0 .01 0 0 1 1 0
 0 25e-5 17 175 0 176 175 175 0 177 169 0 0 +15 176 28 0 175 166 0 17 177 0 178
 177 177 0 175 169 0 0 -15 178 19 0 177 179 0 14 179 18 180 ?0 181 178 13 168 -0
 0 0 181 171 81 1 180 77 120 179 182 0 183 0 184 14 181 1 183 ?179 166 173 13 18
5 +0 0 179 166 171 50 168 24 0 179 185 14 0 +0 0 0 0 0 1 1 0 0 13 171 10 0 0 0 0
 0 0 16 166 14 166 27 186 ?181 0 187 13 14 -0 0 181 0 171 81 1 186 75 120 166 18
8 0 0 183 189 15 187 26 0 174 166 176 17 174 0 187 174 174 0 172 17 0 0 -81 1 18
8 72 137 166 0 186 190 0 191 81 1 183 76 120 181 190 0 186 180 192 83 3 189 .792
156862745098 .819607843137255 .933333333333333 81 1 190 69 137 181 0 183 182 188
 193 83 3 192 .792156862745098 .819607843137255 .933333333333333 81 1 182 66 137
 179 0 180 0 190 194 82 1 193 261292343 82 1 194 262996279 82 1 191 263258423 50
 185 3 0 181 0 168 0 +0 0 .01 0 0 1 1 0 0 15 173 4 0 172 181 0 83 3 184 .7921568
62745098 .819607843137255 .933333333333333 19 167 32 0 7 0 16 13 0 S0 74 20 165
 4 0 0 163 188 180 10 0 0 0 0 0 0 0 0 0 0 0 0 0 0 0 0 81 2 163 52 157 7 0 10 0 0
 195 0 98 11 195 -114 -98 -131 32 45 32 25276 12375 20986 12375 49 84 8 164 cyli
nder74 20 6 1 0 0 2 0 0 0 0 0 0 0 0 0 0 0 0 0 0 0 0 0 0 0 1 0 
